<svg width="140" height="168" viewBox="0 0 140 168" fill="none" xmlns="http://www.w3.org/2000/svg">
<mask id="path-1-outside-1_2_99" maskUnits="userSpaceOnUse" x="-0.724182" y="9" width="131" height="28" fill="black">
<rect fill="white" x="-0.724182" y="9" width="131" height="28"/>
<path d="M19.7798 10.52L12.2918 25.208V35H9.15982V25.208L1.63582 10.52H5.01982L10.8878 22.112L16.5398 10.52H19.7798ZM37.6507 32.084V35H23.9707V10.52H37.2907V13.472H27.1027V21.14H36.2107V24.092H27.1027V32.084H37.6507ZM56.4877 32.084V35H43.0957V10.52H46.2277V32.084H56.4877ZM74.6987 32.084V35H61.3067V10.52H64.4387V32.084H74.6987ZM95.5879 20.06V25.424C95.5879 28.472 94.8199 30.896 93.2839 32.696C91.7719 34.472 89.5879 35.36 86.7319 35.36C83.8759 35.36 81.6799 34.472 80.1439 32.696C78.6319 30.896 77.8759 28.472 77.8759 25.424V20.06C77.8759 17.036 78.6319 14.636 80.1439 12.86C81.6799 11.06 83.8759 10.16 86.7319 10.16C89.5879 10.16 91.7719 11.06 93.2839 12.86C94.8199 14.636 95.5879 17.036 95.5879 20.06ZM92.3479 20.06C92.3479 17.828 91.8679 16.112 90.9079 14.912C89.9719 13.688 88.5799 13.076 86.7319 13.076C84.9079 13.076 83.5159 13.688 82.5559 14.912C81.5959 16.112 81.1159 17.828 81.1159 20.06V25.424C81.1159 27.68 81.5959 29.42 82.5559 30.644C83.5159 31.868 84.9079 32.48 86.7319 32.48C88.5799 32.48 89.9719 31.868 90.9079 30.644C91.8679 29.42 92.3479 27.68 92.3479 25.424V20.06ZM105.109 20.888L106.837 30.788L112.489 10.52H115.405L121.057 30.68L122.857 20.888L124.981 10.52H128.077L122.677 35H119.509L113.893 14.984L108.277 35H105.073L99.7085 10.52H102.985L105.109 20.888Z"/>
</mask>
<g filter="url(#filter0_i_2_99)">
<path d="M19.7798 10.52L12.2918 25.208V35H9.15982V25.208L1.63582 10.52H5.01982L10.8878 22.112L16.5398 10.52H19.7798ZM37.6507 32.084V35H23.9707V10.52H37.2907V13.472H27.1027V21.14H36.2107V24.092H27.1027V32.084H37.6507ZM56.4877 32.084V35H43.0957V10.52H46.2277V32.084H56.4877ZM74.6987 32.084V35H61.3067V10.52H64.4387V32.084H74.6987ZM95.5879 20.06V25.424C95.5879 28.472 94.8199 30.896 93.2839 32.696C91.7719 34.472 89.5879 35.36 86.7319 35.36C83.8759 35.36 81.6799 34.472 80.1439 32.696C78.6319 30.896 77.8759 28.472 77.8759 25.424V20.06C77.8759 17.036 78.6319 14.636 80.1439 12.86C81.6799 11.06 83.8759 10.16 86.7319 10.16C89.5879 10.16 91.7719 11.06 93.2839 12.86C94.8199 14.636 95.5879 17.036 95.5879 20.06ZM92.3479 20.06C92.3479 17.828 91.8679 16.112 90.9079 14.912C89.9719 13.688 88.5799 13.076 86.7319 13.076C84.9079 13.076 83.5159 13.688 82.5559 14.912C81.5959 16.112 81.1159 17.828 81.1159 20.06V25.424C81.1159 27.68 81.5959 29.42 82.5559 30.644C83.5159 31.868 84.9079 32.48 86.7319 32.48C88.5799 32.48 89.9719 31.868 90.9079 30.644C91.8679 29.42 92.3479 27.68 92.3479 25.424V20.06ZM105.109 20.888L106.837 30.788L112.489 10.52H115.405L121.057 30.68L122.857 20.888L124.981 10.52H128.077L122.677 35H119.509L113.893 14.984L108.277 35H105.073L99.7085 10.52H102.985L105.109 20.888Z" fill="black"/>
</g>
<path d="M19.7798 10.52L20.6707 10.9742L21.4121 9.52H19.7798V10.52ZM12.2918 25.208L11.4009 24.7538L11.2918 24.9678V25.208H12.2918ZM12.2918 35V36H13.2918V35H12.2918ZM9.15982 35H8.15982V36H9.15982V35ZM9.15982 25.208H10.1598V24.9668L10.0498 24.7521L9.15982 25.208ZM1.63582 10.52V9.52H-5.126e-06L0.745796 10.9759L1.63582 10.52ZM5.01982 10.52L5.91202 10.0684L5.63443 9.52H5.01982V10.52ZM10.8878 22.112L9.99562 22.5636L10.9046 24.3593L11.7867 22.5503L10.8878 22.112ZM16.5398 10.52V9.52H15.9149L15.641 10.0817L16.5398 10.52ZM19.7798 10.52L18.8889 10.0658L11.4009 24.7538L12.2918 25.208L13.1827 25.6622L20.6707 10.9742L19.7798 10.52ZM12.2918 25.208H11.2918V35H12.2918H13.2918V25.208H12.2918ZM12.2918 35V34H9.15982V35V36H12.2918V35ZM9.15982 35H10.1598V25.208H9.15982H8.15982V35H9.15982ZM9.15982 25.208L10.0498 24.7521L2.52584 10.0641L1.63582 10.52L0.745796 10.9759L8.2698 25.6639L9.15982 25.208ZM1.63582 10.52V11.52H5.01982V10.52V9.52H1.63582V10.52ZM5.01982 10.52L4.12762 10.9716L9.99562 22.5636L10.8878 22.112L11.78 21.6604L5.91202 10.0684L5.01982 10.52ZM10.8878 22.112L11.7867 22.5503L17.4387 10.9583L16.5398 10.52L15.641 10.0817L9.98897 21.6737L10.8878 22.112ZM16.5398 10.52V11.52H19.7798V10.52V9.52H16.5398V10.52ZM37.6507 32.084H38.6507V31.084H37.6507V32.084ZM37.6507 35V36H38.6507V35H37.6507ZM23.9707 35H22.9707V36H23.9707V35ZM23.9707 10.52V9.52H22.9707V10.52H23.9707ZM37.2907 10.52H38.2907V9.52H37.2907V10.52ZM37.2907 13.472V14.472H38.2907V13.472H37.2907ZM27.1027 13.472V12.472H26.1027V13.472H27.1027ZM27.1027 21.14H26.1027V22.14H27.1027V21.14ZM36.2107 21.14H37.2107V20.14H36.2107V21.14ZM36.2107 24.092V25.092H37.2107V24.092H36.2107ZM27.1027 24.092V23.092H26.1027V24.092H27.1027ZM27.1027 32.084H26.1027V33.084H27.1027V32.084ZM37.6507 32.084H36.6507V35H37.6507H38.6507V32.084H37.6507ZM37.6507 35V34H23.9707V35V36H37.6507V35ZM23.9707 35H24.9707V10.52H23.9707H22.9707V35H23.9707ZM23.9707 10.52V11.52H37.2907V10.52V9.52H23.9707V10.52ZM37.2907 10.52H36.2907V13.472H37.2907H38.2907V10.52H37.2907ZM37.2907 13.472V12.472H27.1027V13.472V14.472H37.2907V13.472ZM27.1027 13.472H26.1027V21.14H27.1027H28.1027V13.472H27.1027ZM27.1027 21.14V22.14H36.2107V21.14V20.14H27.1027V21.14ZM36.2107 21.14H35.2107V24.092H36.2107H37.2107V21.14H36.2107ZM36.2107 24.092V23.092H27.1027V24.092V25.092H36.2107V24.092ZM27.1027 24.092H26.1027V32.084H27.1027H28.1027V24.092H27.1027ZM27.1027 32.084V33.084H37.6507V32.084V31.084H27.1027V32.084ZM56.4877 32.084H57.4877V31.084H56.4877V32.084ZM56.4877 35V36H57.4877V35H56.4877ZM43.0957 35H42.0957V36H43.0957V35ZM43.0957 10.52V9.52H42.0957V10.52H43.0957ZM46.2277 10.52H47.2277V9.52H46.2277V10.52ZM46.2277 32.084H45.2277V33.084H46.2277V32.084ZM56.4877 32.084H55.4877V35H56.4877H57.4877V32.084H56.4877ZM56.4877 35V34H43.0957V35V36H56.4877V35ZM43.0957 35H44.0957V10.52H43.0957H42.0957V35H43.0957ZM43.0957 10.52V11.52H46.2277V10.52V9.52H43.0957V10.52ZM46.2277 10.52H45.2277V32.084H46.2277H47.2277V10.52H46.2277ZM46.2277 32.084V33.084H56.4877V32.084V31.084H46.2277V32.084ZM74.6987 32.084H75.6987V31.084H74.6987V32.084ZM74.6987 35V36H75.6987V35H74.6987ZM61.3067 35H60.3067V36H61.3067V35ZM61.3067 10.52V9.52H60.3067V10.52H61.3067ZM64.4387 10.52H65.4387V9.52H64.4387V10.52ZM64.4387 32.084H63.4387V33.084H64.4387V32.084ZM74.6987 32.084H73.6987V35H74.6987H75.6987V32.084H74.6987ZM74.6987 35V34H61.3067V35V36H74.6987V35ZM61.3067 35H62.3067V10.52H61.3067H60.3067V35H61.3067ZM61.3067 10.52V11.52H64.4387V10.52V9.52H61.3067V10.52ZM64.4387 10.52H63.4387V32.084H64.4387H65.4387V10.52H64.4387ZM64.4387 32.084V33.084H74.6987V32.084V31.084H64.4387V32.084ZM93.2839 32.696L92.5233 32.0469L92.5225 32.0478L93.2839 32.696ZM80.1439 32.696L79.3782 33.3392L79.3829 33.3447L79.3876 33.3502L80.1439 32.696ZM80.1439 12.86L79.3833 12.2109L79.3825 12.2118L80.1439 12.86ZM93.2839 12.86L92.5182 13.5032L92.5229 13.5087L92.5276 13.5142L93.2839 12.86ZM90.9079 14.912L90.1136 15.5194L90.1202 15.5281L90.1271 15.5367L90.9079 14.912ZM82.5559 14.912L83.3368 15.5367L83.3428 15.5291L82.5559 14.912ZM82.5559 30.644L83.3428 30.0269V30.0269L82.5559 30.644ZM90.9079 30.644L90.121 30.0268L90.1136 30.0365L90.9079 30.644ZM95.5879 20.06H94.5879V25.424H95.5879H96.5879V20.06H95.5879ZM95.5879 25.424H94.5879C94.5879 28.3041 93.8647 30.4749 92.5233 32.0469L93.2839 32.696L94.0446 33.3451C95.7752 31.3171 96.5879 28.6399 96.5879 25.424H95.5879ZM93.2839 32.696L92.5225 32.0478C91.2426 33.5511 89.3667 34.36 86.7319 34.36V35.36V36.36C89.8092 36.36 92.3013 35.3929 94.0454 33.3442L93.2839 32.696ZM86.7319 35.36V34.36C84.0978 34.36 82.2057 33.5512 80.9003 32.0418L80.1439 32.696L79.3876 33.3502C81.1542 35.3928 83.6541 36.36 86.7319 36.36V35.36ZM80.1439 32.696L80.9096 32.0528C79.5891 30.4807 78.8759 28.3077 78.8759 25.424H77.8759H76.8759C76.8759 28.6363 77.6748 31.3113 79.3782 33.3392L80.1439 32.696ZM77.8759 25.424H78.8759V20.06H77.8759H76.8759V25.424H77.8759ZM77.8759 20.06H78.8759C78.8759 17.2018 79.5883 15.0553 80.9054 13.5082L80.1439 12.86L79.3825 12.2118C77.6756 14.2167 76.8759 16.8702 76.8759 20.06H77.8759ZM80.1439 12.86L80.9046 13.5091C82.2114 11.9778 84.1022 11.16 86.7319 11.16V10.16V9.16C83.6497 9.16 81.1485 10.1422 79.3833 12.2109L80.1439 12.86ZM86.7319 10.16V11.16C89.3622 11.16 91.2369 11.9778 92.5182 13.5032L93.2839 12.86L94.0497 12.2168C92.307 10.1422 89.8137 9.16 86.7319 9.16V10.16ZM93.2839 12.86L92.5276 13.5142C93.8656 15.0612 94.5879 17.2054 94.5879 20.06H95.5879H96.5879C96.5879 16.8666 95.7743 14.2108 94.0403 12.2058L93.2839 12.86ZM92.3479 20.06H93.3479C93.3479 17.7006 92.8424 15.7293 91.6888 14.2873L90.9079 14.912L90.1271 15.5367C90.8935 16.4947 91.3479 17.9554 91.3479 20.06H92.3479ZM90.9079 14.912L91.7023 14.3045C90.5385 12.7827 88.8219 12.076 86.7319 12.076V13.076V14.076C88.338 14.076 89.4054 14.5933 90.1136 15.5194L90.9079 14.912ZM86.7319 13.076V12.076C84.6603 12.076 82.9526 12.7859 81.7691 14.2949L82.5559 14.912L83.3428 15.5291C84.0793 14.5901 85.1556 14.076 86.7319 14.076V13.076ZM82.5559 14.912L81.7751 14.2873C80.6215 15.7293 80.1159 17.7006 80.1159 20.06H81.1159H82.1159C82.1159 17.9554 82.5704 16.4947 83.3368 15.5367L82.5559 14.912ZM81.1159 20.06H80.1159V25.424H81.1159H82.1159V20.06H81.1159ZM81.1159 25.424H80.1159C80.1159 27.8062 80.6209 29.7972 81.7691 31.2611L82.5559 30.644L83.3428 30.0269C82.571 29.0428 82.1159 27.5538 82.1159 25.424H81.1159ZM82.5559 30.644L81.7691 31.2611C82.9526 32.7701 84.6603 33.48 86.7319 33.48V32.48V31.48C85.1556 31.48 84.0793 30.9659 83.3428 30.0269L82.5559 30.644ZM86.7319 32.48V33.48C88.8219 33.48 90.5385 32.7733 91.7023 31.2514L90.9079 30.644L90.1136 30.0365C89.4054 30.9627 88.338 31.48 86.7319 31.48V32.48ZM90.9079 30.644L91.6948 31.2611C92.843 29.7972 93.3479 27.8062 93.3479 25.424H92.3479H91.3479C91.3479 27.5538 90.8929 29.0428 90.1211 30.0269L90.9079 30.644ZM92.3479 25.424H93.3479V20.06H92.3479H91.3479V25.424H92.3479ZM105.109 20.888L106.094 20.7161L106.091 20.7016L106.088 20.6873L105.109 20.888ZM106.837 30.788L105.851 30.9599L107.8 31.0566L106.837 30.788ZM112.489 10.52V9.52H111.729L111.525 10.2514L112.489 10.52ZM115.405 10.52L116.367 10.2501L116.163 9.52H115.405V10.52ZM121.057 30.68L120.094 30.9499L122.04 30.8608L121.057 30.68ZM122.857 20.888L121.877 20.6873L121.875 20.6972L121.873 20.7072L122.857 20.888ZM124.981 10.52V9.52H124.165L124.001 10.3193L124.981 10.52ZM128.077 10.52L129.053 10.7354L129.321 9.52H128.077V10.52ZM122.677 35V36H123.48L123.653 35.2154L122.677 35ZM119.509 35L118.546 35.2701L118.75 36H119.509V35ZM113.893 14.984L114.855 14.7139L113.893 11.2823L112.93 14.7139L113.893 14.984ZM108.277 35V36H109.035L109.239 35.2701L108.277 35ZM105.073 35L104.096 35.214L104.268 36H105.073V35ZM99.7085 10.52V9.52H98.4657L98.7317 10.734L99.7085 10.52ZM102.985 10.52L103.964 10.3193L103.8 9.52H102.985V10.52ZM105.109 20.888L104.123 21.0599L105.851 30.9599L106.837 30.788L107.822 30.6161L106.094 20.7161L105.109 20.888ZM106.837 30.788L107.8 31.0566L113.452 10.7886L112.489 10.52L111.525 10.2514L105.873 30.5194L106.837 30.788ZM112.489 10.52V11.52H115.405V10.52V9.52H112.489V10.52ZM115.405 10.52L114.442 10.7899L120.094 30.9499L121.057 30.68L122.019 30.4101L116.367 10.2501L115.405 10.52ZM121.057 30.68L122.04 30.8608L123.84 21.0688L122.857 20.888L121.873 20.7072L120.073 30.4992L121.057 30.68ZM122.857 20.888L123.836 21.0887L125.96 10.7207L124.981 10.52L124.001 10.3193L121.877 20.6873L122.857 20.888ZM124.981 10.52V11.52H128.077V10.52V9.52H124.981V10.52ZM128.077 10.52L127.1 10.3046L121.7 34.7846L122.677 35L123.653 35.2154L129.053 10.7354L128.077 10.52ZM122.677 35V34H119.509V35V36H122.677V35ZM119.509 35L120.471 34.7299L114.855 14.7139L113.893 14.984L112.93 15.2541L118.546 35.2701L119.509 35ZM113.893 14.984L112.93 14.7139L107.314 34.7299L108.277 35L109.239 35.2701L114.855 15.2541L113.893 14.984ZM108.277 35V34H105.073V35V36H108.277V35ZM105.073 35L106.049 34.786L100.685 10.306L99.7085 10.52L98.7317 10.734L104.096 35.214L105.073 35ZM99.7085 10.52V11.52H102.985V10.52V9.52H99.7085V10.52ZM102.985 10.52L102.005 10.7207L104.129 21.0887L105.109 20.888L106.088 20.6873L103.964 10.3193L102.985 10.52Z" fill="black" mask="url(#path-1-outside-1_2_99)"/>
<mask id="path-3-outside-2_2_99" maskUnits="userSpaceOnUse" x="102.276" y="44.3652" width="28" height="96" fill="black">
<rect fill="white" x="102.276" y="44.3652" width="28" height="96"/>
<path d="M104.276 46.1812L128.756 46.1812V53.8132C128.756 56.1652 128.132 57.9532 126.884 59.1772C125.66 60.4252 124.016 61.0492 121.952 61.0492H120.044C117.98 61.0492 116.324 60.4252 115.076 59.1772C113.828 57.9532 113.204 56.1652 113.204 53.8132V49.3132H104.276V46.1812ZM125.804 53.8132V49.3132L116.12 49.3132V53.8132C116.12 55.1092 116.468 56.0932 117.164 56.7652C117.86 57.4612 118.82 57.8092 120.044 57.8092H121.952C123.152 57.8092 124.088 57.4612 124.76 56.7652C125.456 56.0932 125.804 55.1092 125.804 53.8132ZM104.276 77.9498L109.964 76.1138V66.8258L104.276 64.9898V61.9298L128.756 70.0658V73.0178L104.276 81.1898V77.9498ZM117.02 69.0938L112.808 67.7258V75.1778L117.02 73.8098L124.58 71.4698L117.02 69.0938ZM105.968 100.544C105.512 99.848 105.056 98.852 104.6 97.556C104.144 96.284 103.916 94.748 103.916 92.948C103.916 91.004 104.324 89.36 105.14 88.016C105.98 86.696 107.144 85.688 108.632 84.992C110.144 84.32 111.884 83.984 113.852 83.984H119.216C122.288 83.984 124.7 84.752 126.452 86.288C128.228 87.848 129.116 90.104 129.116 93.056C129.116 94.136 128.996 95.264 128.756 96.44C128.516 97.64 128.12 98.828 127.568 100.004L124.868 98.996C125.756 96.836 126.2 94.868 126.2 93.092C126.2 91.124 125.6 89.648 124.4 88.664C123.224 87.704 121.496 87.224 119.216 87.224H113.852C111.692 87.224 109.976 87.716 108.704 88.7C107.432 89.684 106.796 91.172 106.796 93.164C106.796 93.932 106.88 94.712 107.048 95.504C107.216 96.32 107.444 97.04 107.732 97.664H114.32V93.092H117.092V100.544H105.968ZM107.192 120.471H104.276V106.791H128.756V120.111H125.804V109.923H118.136V119.031H115.184V109.923H107.192V120.471ZM106.724 130.92C106.724 132.432 107.048 133.596 107.696 134.412C108.368 135.228 109.34 135.636 110.612 135.636C111.668 135.636 112.556 135.348 113.276 134.772C113.996 134.22 114.548 133.308 114.932 132.036L115.796 129.12C116.348 127.296 117.176 125.952 118.28 125.088C119.408 124.224 120.788 123.792 122.42 123.792C123.668 123.792 124.796 124.032 125.804 124.512C126.812 125.016 127.616 125.808 128.216 126.888C128.816 127.992 129.116 129.432 129.116 131.208C129.116 132.288 128.984 133.404 128.72 134.556C128.48 135.708 128.084 136.872 127.532 138.048L124.832 137.04C125.336 135.888 125.696 134.844 125.912 133.908C126.152 132.996 126.272 132.12 126.272 131.28C126.272 129.912 125.984 128.844 125.408 128.076C124.856 127.332 123.932 126.96 122.636 126.96C121.7 126.96 120.908 127.212 120.26 127.716C119.636 128.22 119.12 129.12 118.712 130.416L117.848 133.332C116.768 136.98 114.44 138.804 110.864 138.804C108.8 138.804 107.12 138.18 105.824 136.932C104.552 135.684 103.916 133.68 103.916 130.92C103.916 129.792 104.048 128.592 104.312 127.32C104.6 126.072 105.044 124.776 105.644 123.432L108.308 124.404C107.732 125.676 107.324 126.816 107.084 127.824C106.844 128.856 106.724 129.888 106.724 130.92Z"/>
</mask>
<g filter="url(#filter1_i_2_99)">
<path d="M104.276 46.1812L128.756 46.1812V53.8132C128.756 56.1652 128.132 57.9532 126.884 59.1772C125.66 60.4252 124.016 61.0492 121.952 61.0492H120.044C117.98 61.0492 116.324 60.4252 115.076 59.1772C113.828 57.9532 113.204 56.1652 113.204 53.8132V49.3132H104.276V46.1812ZM125.804 53.8132V49.3132L116.12 49.3132V53.8132C116.12 55.1092 116.468 56.0932 117.164 56.7652C117.86 57.4612 118.82 57.8092 120.044 57.8092H121.952C123.152 57.8092 124.088 57.4612 124.76 56.7652C125.456 56.0932 125.804 55.1092 125.804 53.8132ZM104.276 77.9498L109.964 76.1138V66.8258L104.276 64.9898V61.9298L128.756 70.0658V73.0178L104.276 81.1898V77.9498ZM117.02 69.0938L112.808 67.7258V75.1778L117.02 73.8098L124.58 71.4698L117.02 69.0938ZM105.968 100.544C105.512 99.848 105.056 98.852 104.6 97.556C104.144 96.284 103.916 94.748 103.916 92.948C103.916 91.004 104.324 89.36 105.14 88.016C105.98 86.696 107.144 85.688 108.632 84.992C110.144 84.32 111.884 83.984 113.852 83.984H119.216C122.288 83.984 124.7 84.752 126.452 86.288C128.228 87.848 129.116 90.104 129.116 93.056C129.116 94.136 128.996 95.264 128.756 96.44C128.516 97.64 128.12 98.828 127.568 100.004L124.868 98.996C125.756 96.836 126.2 94.868 126.2 93.092C126.2 91.124 125.6 89.648 124.4 88.664C123.224 87.704 121.496 87.224 119.216 87.224H113.852C111.692 87.224 109.976 87.716 108.704 88.7C107.432 89.684 106.796 91.172 106.796 93.164C106.796 93.932 106.88 94.712 107.048 95.504C107.216 96.32 107.444 97.04 107.732 97.664H114.32V93.092H117.092V100.544H105.968ZM107.192 120.471H104.276V106.791H128.756V120.111H125.804V109.923H118.136V119.031H115.184V109.923H107.192V120.471ZM106.724 130.92C106.724 132.432 107.048 133.596 107.696 134.412C108.368 135.228 109.34 135.636 110.612 135.636C111.668 135.636 112.556 135.348 113.276 134.772C113.996 134.22 114.548 133.308 114.932 132.036L115.796 129.12C116.348 127.296 117.176 125.952 118.28 125.088C119.408 124.224 120.788 123.792 122.42 123.792C123.668 123.792 124.796 124.032 125.804 124.512C126.812 125.016 127.616 125.808 128.216 126.888C128.816 127.992 129.116 129.432 129.116 131.208C129.116 132.288 128.984 133.404 128.72 134.556C128.48 135.708 128.084 136.872 127.532 138.048L124.832 137.04C125.336 135.888 125.696 134.844 125.912 133.908C126.152 132.996 126.272 132.12 126.272 131.28C126.272 129.912 125.984 128.844 125.408 128.076C124.856 127.332 123.932 126.96 122.636 126.96C121.7 126.96 120.908 127.212 120.26 127.716C119.636 128.22 119.12 129.12 118.712 130.416L117.848 133.332C116.768 136.98 114.44 138.804 110.864 138.804C108.8 138.804 107.12 138.18 105.824 136.932C104.552 135.684 103.916 133.68 103.916 130.92C103.916 129.792 104.048 128.592 104.312 127.32C104.6 126.072 105.044 124.776 105.644 123.432L108.308 124.404C107.732 125.676 107.324 126.816 107.084 127.824C106.844 128.856 106.724 129.888 106.724 130.92Z" fill="black"/>
</g>
<path d="M104.276 46.1812V45.1812H103.276V46.1812H104.276ZM128.756 46.1812H129.756V45.1812H128.756V46.1812ZM126.884 59.1772L126.184 58.4633L126.177 58.4701L126.17 58.477L126.884 59.1772ZM115.076 59.1772L115.783 58.4701L115.776 58.4633L115.076 59.1772ZM113.204 49.3132H114.204V48.3132H113.204V49.3132ZM104.276 49.3132H103.276V50.3132H104.276V49.3132ZM125.804 49.3132H126.804V48.3132H125.804V49.3132ZM116.12 49.3132V48.3132H115.12V49.3132H116.12ZM117.164 56.7652L117.871 56.0581L117.865 56.0519L117.858 56.0458L117.164 56.7652ZM124.76 56.7652L124.065 56.0458L124.053 56.058L124.04 56.0706L124.76 56.7652ZM104.276 46.1812V47.1812L128.756 47.1812V46.1812V45.1812L104.276 45.1812V46.1812ZM128.756 46.1812H127.756V53.8132H128.756H129.756V46.1812H128.756ZM128.756 53.8132H127.756C127.756 55.9925 127.181 57.4853 126.184 58.4633L126.884 59.1772L127.584 59.8912C129.083 58.4212 129.756 56.338 129.756 53.8132H128.756ZM126.884 59.1772L126.17 58.477C125.168 59.4989 123.8 60.0492 121.952 60.0492V61.0492V62.0492C124.232 62.0492 126.152 61.3516 127.598 59.8774L126.884 59.1772ZM121.952 61.0492V60.0492H120.044V61.0492V62.0492H121.952V61.0492ZM120.044 61.0492V60.0492C118.197 60.0492 116.812 59.4989 115.783 58.4701L115.076 59.1772L114.369 59.8843C115.836 61.3516 117.763 62.0492 120.044 62.0492V61.0492ZM115.076 59.1772L115.776 58.4633C114.779 57.4853 114.204 55.9925 114.204 53.8132L113.204 53.8132H112.204C112.204 56.338 112.877 58.4212 114.376 59.8912L115.076 59.1772ZM113.204 53.8132L114.204 53.8132V49.3132H113.204H112.204V53.8132H113.204ZM113.204 49.3132V48.3132H104.276V49.3132V50.3132H113.204V49.3132ZM104.276 49.3132H105.276V46.1812H104.276H103.276V49.3132H104.276ZM125.804 53.8132H126.804V49.3132H125.804H124.804V53.8132H125.804ZM125.804 49.3132V48.3132L116.12 48.3132V49.3132V50.3132L125.804 50.3132V49.3132ZM116.12 49.3132H115.12V53.8132H116.12H117.12V49.3132L116.12 49.3132ZM116.12 53.8132H115.12C115.12 55.285 115.519 56.5668 116.469 57.4846L117.164 56.7652L117.858 56.0458C117.417 55.6197 117.12 54.9335 117.12 53.8132H116.12ZM117.164 56.7652L116.457 57.4723C117.384 58.3992 118.623 58.8092 120.044 58.8092V57.8092V56.8092C119.017 56.8092 118.336 56.5232 117.871 56.0581L117.164 56.7652ZM120.044 57.8092V58.8092H121.952V57.8092V56.8092H120.044V57.8092ZM121.952 57.8092V58.8092C123.354 58.8092 124.575 58.3959 125.479 57.4598L124.76 56.7652L124.04 56.0706C123.6 56.5266 122.95 56.8092 121.952 56.8092V57.8092ZM124.76 56.7652L125.454 57.4846C126.405 56.5668 126.804 55.285 126.804 53.8132H125.804H124.804C124.804 54.9335 124.507 55.6197 124.065 56.0458L124.76 56.7652ZM104.276 77.9498L103.969 76.9982L103.276 77.2218V77.9498H104.276ZM109.964 76.1138L110.271 77.0655L110.964 76.8419V76.1138H109.964ZM109.964 66.8258H110.964V66.0978L110.271 65.8742L109.964 66.8258ZM104.276 64.9898H103.276V65.7178L103.969 65.9415L104.276 64.9898ZM104.276 61.9298L104.591 60.9809L103.276 60.5437V61.9298H104.276ZM128.756 70.0658H129.756V69.3444L129.071 69.1169L128.756 70.0658ZM128.756 73.0178L129.072 73.9664L129.756 73.7383V73.0178H128.756ZM104.276 81.1898H103.276V82.5779L104.592 82.1384L104.276 81.1898ZM117.02 69.0938L116.711 70.045L116.72 70.0478L117.02 69.0938ZM112.808 67.7258L113.117 66.7747L111.808 66.3496V67.7258H112.808ZM112.808 75.1778H111.808V76.554L113.117 76.1289L112.808 75.1778ZM117.02 73.8098L116.724 72.8545L116.711 72.8587L117.02 73.8098ZM124.58 71.4698L124.876 72.4251L127.938 71.4771L124.88 70.5158L124.58 71.4698ZM104.276 77.9498L104.583 78.9015L110.271 77.0655L109.964 76.1138L109.657 75.1622L103.969 76.9982L104.276 77.9498ZM109.964 76.1138H110.964V66.8258H109.964H108.964V76.1138H109.964ZM109.964 66.8258L110.271 65.8742L104.583 64.0382L104.276 64.9898L103.969 65.9415L109.657 67.7775L109.964 66.8258ZM104.276 64.9898H105.276V61.9298H104.276H103.276V64.9898H104.276ZM104.276 61.9298L103.96 62.8788L128.44 71.0148L128.756 70.0658L129.071 69.1169L104.591 60.9809L104.276 61.9298ZM128.756 70.0658H127.756V73.0178H128.756H129.756V70.0658H128.756ZM128.756 73.0178L128.439 72.0693L103.959 80.2413L104.276 81.1898L104.592 82.1384L129.072 73.9664L128.756 73.0178ZM104.276 81.1898H105.276V77.9498H104.276H103.276V81.1898H104.276ZM117.02 69.0938L117.329 68.1427L113.117 66.7747L112.808 67.7258L112.499 68.6769L116.711 70.0449L117.02 69.0938ZM112.808 67.7258H111.808V75.1778H112.808H113.808V67.7258H112.808ZM112.808 75.1778L113.117 76.1289L117.329 74.7609L117.02 73.8098L116.711 72.8587L112.499 74.2267L112.808 75.1778ZM117.02 73.8098L117.316 74.7651L124.876 72.4251L124.58 71.4698L124.284 70.5145L116.724 72.8545L117.02 73.8098ZM124.58 71.4698L124.88 70.5158L117.32 68.1398L117.02 69.0938L116.72 70.0478L124.28 72.4238L124.58 71.4698ZM105.968 100.544L105.131 101.092L105.427 101.544H105.968V100.544ZM104.6 97.556L105.543 97.2241L105.541 97.2186L104.6 97.556ZM105.14 88.016L104.296 87.4792L104.291 87.4881L104.285 87.4971L105.14 88.016ZM108.632 84.992L108.226 84.0782L108.217 84.0822L108.208 84.0862L108.632 84.992ZM126.452 86.288L127.112 85.5367L127.111 85.5361L126.452 86.288ZM128.756 96.44L127.776 96.2401L127.775 96.2439L128.756 96.44ZM127.568 100.004L127.218 100.941L128.081 101.263L128.473 100.429L127.568 100.004ZM124.868 98.996L123.943 98.6158L123.55 99.5715L124.518 99.9329L124.868 98.996ZM124.4 88.664L125.034 87.8908L125.032 87.8894L124.4 88.664ZM108.704 88.7L109.316 89.491V89.491L108.704 88.7ZM107.048 95.504L108.027 95.3024L108.026 95.2965L107.048 95.504ZM107.732 97.664L106.824 98.0831L107.092 98.664H107.732V97.664ZM114.32 97.664V98.664H115.32V97.664H114.32ZM114.32 93.092V92.092H113.32V93.092H114.32ZM117.092 93.092H118.092V92.092H117.092V93.092ZM117.092 100.544V101.544H118.092V100.544H117.092ZM105.968 100.544L106.804 99.996C106.412 99.3969 105.987 98.4865 105.543 97.2241L104.6 97.556L103.657 97.888C104.124 99.2176 104.612 100.299 105.131 101.092L105.968 100.544ZM104.6 97.556L105.541 97.2186C105.134 96.0841 104.916 94.6689 104.916 92.948H103.916H102.916C102.916 94.8272 103.153 96.484 103.658 97.8935L104.6 97.556ZM103.916 92.948H104.916C104.916 91.144 105.294 89.6894 105.995 88.535L105.14 88.016L104.285 87.4971C103.354 89.0307 102.916 90.8641 102.916 92.948H103.916ZM105.14 88.016L105.983 88.5529C106.716 87.4015 107.731 86.5175 109.056 85.8979L108.632 84.992L108.208 84.0862C106.557 84.8586 105.243 85.9906 104.296 87.4792L105.14 88.016ZM108.632 84.992L109.038 85.9059C110.4 85.3004 111.998 84.984 113.852 84.984V83.984V82.984C111.77 82.984 109.887 83.3397 108.226 84.0782L108.632 84.992ZM113.852 83.984V84.984H119.216V83.984V82.984H113.852V83.984ZM119.216 83.984V84.984C122.124 84.984 124.274 85.709 125.793 87.04L126.452 86.288L127.111 85.5361C125.125 83.7951 122.452 82.984 119.216 82.984V83.984ZM126.452 86.288L125.792 87.0394C127.3 88.3639 128.116 90.3145 128.116 93.056H129.116H130.116C130.116 89.8936 129.156 87.3322 127.112 85.5367L126.452 86.288ZM129.116 93.056H128.116C128.116 94.0619 128.004 95.1227 127.776 96.2401L128.756 96.44L129.736 96.64C129.988 95.4054 130.116 94.2102 130.116 93.056H129.116ZM128.756 96.44L127.775 96.2439C127.552 97.3602 127.182 98.4716 126.663 99.5791L127.568 100.004L128.473 100.429C129.057 99.1845 129.48 97.9199 129.736 96.6362L128.756 96.44ZM127.568 100.004L127.918 99.0672L125.218 98.0592L124.868 98.996L124.518 99.9329L127.218 100.941L127.568 100.004ZM124.868 98.996L125.793 99.3763C126.715 97.1317 127.2 95.0325 127.2 93.092H126.2H125.2C125.2 94.7036 124.796 96.5404 123.943 98.6158L124.868 98.996ZM126.2 93.092H127.2C127.2 90.9118 126.525 89.1139 125.034 87.8908L124.4 88.664L123.766 89.4373C124.674 90.1822 125.2 91.3363 125.2 93.092H126.2ZM124.4 88.664L125.032 87.8894C123.607 86.7262 121.615 86.224 119.216 86.224V87.224V88.224C121.376 88.224 122.84 88.6819 123.767 89.4387L124.4 88.664ZM119.216 87.224V86.224H113.852V87.224V88.224H119.216V87.224ZM113.852 87.224V86.224C111.546 86.224 109.591 86.7496 108.092 87.9091L108.704 88.7L109.316 89.491C110.361 88.6824 111.838 88.224 113.852 88.224V87.224ZM108.704 88.7L108.092 87.9091C106.517 89.1274 105.796 90.9443 105.796 93.164H106.796H107.796C107.796 91.3998 108.347 90.2407 109.316 89.491L108.704 88.7ZM106.796 93.164H105.796C105.796 94.0054 105.888 94.855 106.07 95.7116L107.048 95.504L108.026 95.2965C107.872 94.5691 107.796 93.8587 107.796 93.164H106.796ZM107.048 95.504L106.068 95.7057C106.249 96.5814 106.498 97.3768 106.824 98.0831L107.732 97.664L108.64 97.245C108.39 96.7033 108.183 96.0587 108.027 95.3024L107.048 95.504ZM107.732 97.664V98.664H114.32V97.664V96.664H107.732V97.664ZM114.32 97.664H115.32V93.092H114.32H113.32V97.664H114.32ZM114.32 93.092V94.092H117.092V93.092V92.092H114.32V93.092ZM117.092 93.092H116.092V100.544H117.092H118.092V93.092H117.092ZM117.092 100.544V99.544H105.968V100.544V101.544H117.092V100.544ZM107.192 120.471V121.471H108.192V120.471H107.192ZM104.276 120.471H103.276V121.471H104.276V120.471ZM104.276 106.791V105.791H103.276V106.791H104.276ZM128.756 106.791H129.756V105.791H128.756V106.791ZM128.756 120.111V121.111H129.756V120.111H128.756ZM125.804 120.111H124.804V121.111H125.804V120.111ZM125.804 109.923H126.804V108.923H125.804V109.923ZM118.136 109.923V108.923H117.136V109.923H118.136ZM118.136 119.031V120.031H119.136V119.031H118.136ZM115.184 119.031H114.184V120.031H115.184V119.031ZM115.184 109.923H116.184V108.923H115.184V109.923ZM107.192 109.923V108.923H106.192V109.923H107.192ZM107.192 120.471V119.471H104.276V120.471V121.471H107.192V120.471ZM104.276 120.471H105.276V106.791H104.276H103.276V120.471H104.276ZM104.276 106.791V107.791H128.756V106.791V105.791H104.276V106.791ZM128.756 106.791H127.756V120.111H128.756H129.756V106.791H128.756ZM128.756 120.111V119.111H125.804V120.111V121.111H128.756V120.111ZM125.804 120.111H126.804V109.923H125.804H124.804V120.111H125.804ZM125.804 109.923V108.923H118.136V109.923V110.923H125.804V109.923ZM118.136 109.923H117.136V119.031H118.136H119.136V109.923H118.136ZM118.136 119.031V118.031H115.184V119.031V120.031H118.136V119.031ZM115.184 119.031H116.184V109.923H115.184H114.184V119.031H115.184ZM115.184 109.923V108.923H107.192V109.923V110.923H115.184V109.923ZM107.192 109.923H106.192V120.471H107.192H108.192V109.923H107.192ZM107.696 134.412L106.913 135.033L106.918 135.04L106.924 135.047L107.696 134.412ZM113.276 134.772L112.667 133.978L112.659 133.984L112.651 133.991L113.276 134.772ZM114.932 132.036L115.889 132.325L115.891 132.32L114.932 132.036ZM115.796 129.12L114.839 128.83L114.837 128.836L115.796 129.12ZM118.28 125.088L117.672 124.294L117.664 124.3L118.28 125.088ZM125.804 124.512L126.251 123.617L126.242 123.613L126.234 123.609L125.804 124.512ZM128.216 126.888L129.094 126.41L129.09 126.402L128.216 126.888ZM128.72 134.556L127.745 134.332L127.743 134.342L127.741 134.352L128.72 134.556ZM127.532 138.048L127.182 138.984L128.045 139.307L128.437 138.473L127.532 138.048ZM124.832 137.04L123.916 136.639L123.492 137.607L124.482 137.976L124.832 137.04ZM125.912 133.908L124.945 133.653L124.941 133.668L124.937 133.683L125.912 133.908ZM125.408 128.076L124.605 128.671L124.608 128.676L125.408 128.076ZM120.26 127.716L119.646 126.926L119.639 126.932L119.631 126.938L120.26 127.716ZM118.712 130.416L117.758 130.115L117.755 130.123L117.753 130.132L118.712 130.416ZM117.848 133.332L116.889 133.048L116.889 133.048L117.848 133.332ZM105.824 136.932L105.123 137.645L105.13 137.652L105.824 136.932ZM104.312 127.32L103.337 127.095L103.335 127.106L103.333 127.116L104.312 127.32ZM105.644 123.432L105.987 122.492L105.111 122.173L104.731 123.024L105.644 123.432ZM108.308 124.404L109.219 124.816L109.664 123.834L108.651 123.464L108.308 124.404ZM107.084 127.824L106.111 127.592L106.11 127.597L107.084 127.824ZM106.724 130.92H105.724C105.724 132.559 106.073 133.976 106.913 135.033L107.696 134.412L108.479 133.79C108.022 133.215 107.724 132.305 107.724 130.92H106.724ZM107.696 134.412L106.924 135.047C107.825 136.141 109.108 136.636 110.612 136.636V135.636V134.636C109.572 134.636 108.911 134.314 108.468 133.776L107.696 134.412ZM110.612 135.636V136.636C111.86 136.636 112.978 136.291 113.901 135.552L113.276 134.772L112.651 133.991C112.134 134.405 111.475 134.636 110.612 134.636V135.636ZM113.276 134.772L113.884 135.565C114.832 134.839 115.471 133.708 115.889 132.325L114.932 132.036L113.974 131.747C113.624 132.907 113.16 133.6 112.667 133.978L113.276 134.772ZM114.932 132.036L115.891 132.32L116.755 129.404L115.796 129.12L114.837 128.836L113.973 131.752L114.932 132.036ZM115.796 129.12L116.753 129.409C117.266 127.713 118.003 126.574 118.896 125.875L118.28 125.088L117.664 124.3C116.348 125.329 115.429 126.878 114.839 128.83L115.796 129.12ZM118.28 125.088L118.888 125.881C119.816 125.171 120.974 124.792 122.42 124.792V123.792V122.792C120.602 122.792 119 123.277 117.672 124.294L118.28 125.088ZM122.42 123.792V124.792C123.537 124.792 124.515 125.006 125.374 125.414L125.804 124.512L126.234 123.609C125.076 123.058 123.799 122.792 122.42 122.792V123.792ZM125.804 124.512L125.357 125.406C126.167 125.811 126.83 126.452 127.342 127.373L128.216 126.888L129.09 126.402C128.402 125.164 127.457 124.22 126.251 123.617L125.804 124.512ZM128.216 126.888L127.337 127.365C127.831 128.274 128.116 129.533 128.116 131.208H129.116H130.116C130.116 129.33 129.8 127.709 129.094 126.41L128.216 126.888ZM129.116 131.208H128.116C128.116 132.206 127.994 133.247 127.745 134.332L128.72 134.556L129.695 134.779C129.974 133.561 130.116 132.369 130.116 131.208H129.116ZM128.72 134.556L127.741 134.352C127.518 135.42 127.149 136.51 126.627 137.623L127.532 138.048L128.437 138.473C129.019 137.233 129.441 135.995 129.699 134.76L128.72 134.556ZM127.532 138.048L127.882 137.111L125.182 136.103L124.832 137.04L124.482 137.976L127.182 138.984L127.532 138.048ZM124.832 137.04L125.748 137.44C126.27 136.248 126.653 135.144 126.886 134.132L125.912 133.908L124.937 133.683C124.739 134.543 124.402 135.527 123.916 136.639L124.832 137.04ZM125.912 133.908L126.879 134.162C127.138 133.177 127.272 132.215 127.272 131.28H126.272H125.272C125.272 132.024 125.166 132.814 124.945 133.653L125.912 133.908ZM126.272 131.28H127.272C127.272 129.784 126.959 128.477 126.208 127.476L125.408 128.076L124.608 128.676C125.009 129.211 125.272 130.039 125.272 131.28H126.272ZM125.408 128.076L126.211 127.48C125.402 126.39 124.114 125.96 122.636 125.96V126.96V127.96C123.75 127.96 124.309 128.273 124.605 128.671L125.408 128.076ZM122.636 126.96V125.96C121.51 125.96 120.494 126.267 119.646 126.926L120.26 127.716L120.874 128.505C121.322 128.156 121.889 127.96 122.636 127.96V126.96ZM120.26 127.716L119.631 126.938C118.781 127.624 118.188 128.748 117.758 130.115L118.712 130.416L119.666 130.716C120.051 129.491 120.491 128.815 120.888 128.494L120.26 127.716ZM118.712 130.416L117.753 130.132L116.889 133.048L117.848 133.332L118.807 133.616L119.671 130.7L118.712 130.416ZM117.848 133.332L116.889 133.048C116.391 134.73 115.634 135.897 114.675 136.648C113.722 137.395 112.476 137.804 110.864 137.804V138.804V139.804C112.827 139.804 114.534 139.3 115.909 138.223C117.277 137.15 118.225 135.582 118.807 133.615L117.848 133.332ZM110.864 138.804V137.804C109.017 137.804 107.599 137.253 106.517 136.211L105.824 136.932L105.13 137.652C106.64 139.106 108.582 139.804 110.864 139.804V138.804ZM105.824 136.932L106.524 136.218C105.527 135.239 104.916 133.555 104.916 130.92H103.916H102.916C102.916 133.804 103.577 136.128 105.123 137.645L105.824 136.932ZM103.916 130.92H104.916C104.916 129.869 105.039 128.738 105.291 127.523L104.312 127.32L103.333 127.116C103.057 128.445 102.916 129.714 102.916 130.92H103.916ZM104.312 127.32L105.286 127.544C105.558 126.368 105.979 125.133 106.557 123.839L105.644 123.432L104.731 123.024C104.108 124.418 103.642 125.776 103.337 127.095L104.312 127.32ZM105.644 123.432L105.301 124.371L107.965 125.343L108.308 124.404L108.651 123.464L105.987 122.492L105.644 123.432ZM108.308 124.404L107.397 123.991C106.803 125.303 106.37 126.505 106.111 127.592L107.084 127.824L108.057 128.055C108.278 127.127 108.661 126.049 109.219 124.816L108.308 124.404ZM107.084 127.824L106.11 127.597C105.853 128.701 105.724 129.809 105.724 130.92H106.724H107.724C107.724 129.966 107.835 129.01 108.058 128.05L107.084 127.824Z" fill="black" mask="url(#path-3-outside-2_2_99)"/>
<defs>
<filter id="filter0_i_2_99" x="0" y="9.15997" width="129.321" height="43.2" filterUnits="userSpaceOnUse" color-interpolation-filters="sRGB">
<feFlood flood-opacity="0" result="BackgroundImageFix"/>
<feBlend mode="normal" in="SourceGraphic" in2="BackgroundImageFix" result="shape"/>
<feColorMatrix in="SourceAlpha" type="matrix" values="0 0 0 0 0 0 0 0 0 0 0 0 0 0 0 0 0 0 127 0" result="hardAlpha"/>
<feMorphology radius="8" operator="dilate" in="SourceAlpha" result="effect1_innerShadow_2_99"/>
<feOffset dy="16"/>
<feGaussianBlur stdDeviation="16"/>
<feComposite in2="hardAlpha" operator="arithmetic" k2="-1" k3="1"/>
<feColorMatrix type="matrix" values="0 0 0 0 0.0470588 0 0 0 0 0.0470588 0 0 0 0 0.0509804 0 0 0 0.4 0"/>
<feBlend mode="normal" in2="shape" result="effect1_innerShadow_2_99"/>
</filter>
<filter id="filter1_i_2_99" x="102.916" y="45.1813" width="27.2" height="110.622" filterUnits="userSpaceOnUse" color-interpolation-filters="sRGB">
<feFlood flood-opacity="0" result="BackgroundImageFix"/>
<feBlend mode="normal" in="SourceGraphic" in2="BackgroundImageFix" result="shape"/>
<feColorMatrix in="SourceAlpha" type="matrix" values="0 0 0 0 0 0 0 0 0 0 0 0 0 0 0 0 0 0 127 0" result="hardAlpha"/>
<feMorphology radius="8" operator="dilate" in="SourceAlpha" result="effect1_innerShadow_2_99"/>
<feOffset dy="16"/>
<feGaussianBlur stdDeviation="16"/>
<feComposite in2="hardAlpha" operator="arithmetic" k2="-1" k3="1"/>
<feColorMatrix type="matrix" values="0 0 0 0 0.0470588 0 0 0 0 0.0470588 0 0 0 0 0.0509804 0 0 0 0.4 0"/>
<feBlend mode="normal" in2="shape" result="effect1_innerShadow_2_99"/>
</filter>
</defs>
</svg>
